<?xml version="1.0" standalone="no"?><!DOCTYPE svg PUBLIC "-//W3C//DTD SVG 1.1//EN" "http://www.w3.org/Graphics/SVG/1.1/DTD/svg11.dtd"><svg t="1776087161444" class="icon" viewBox="0 0 1024 1024" version="1.1" xmlns="http://www.w3.org/2000/svg" p-id="31786" xmlns:xlink="http://www.w3.org/1999/xlink" width="200" height="200"><path d="M512.33 272.39c-132.508 0-239.945 107.453-239.945 239.961 0 132.5 107.436 239.937 239.946 239.937S752.275 644.852 752.275 512.35c0-132.508-107.436-239.962-239.944-239.962z m0-30.876c30.017 0 54.342-24.326 54.342-54.342v-68.124c0-30.016-24.326-54.342-54.341-54.342s-54.344 24.327-54.344 54.342v68.124c0 30.015 24.327 54.342 54.344 54.342z m0 541.665c-30.016 0-54.342 24.327-54.342 54.342v68.123c0 30.017 24.327 54.343 54.343 54.343s54.341-24.327 54.341-54.343v-68.122c0-30.016-24.326-54.343-54.341-54.343z m393.295-325.17h-68.123c-30.017 0-54.335 24.318-54.335 54.342 0 30.008 24.318 54.335 54.335 54.335h68.123c30.016 0 54.341-24.327 54.341-54.335 0-30.024-24.326-54.342-54.341-54.342z m-664.132 54.342c0-30.024-24.327-54.342-54.343-54.342h-68.123c-29.99 0-54.343 24.318-54.343 54.342 0 30.008 24.353 54.335 54.343 54.335h68.123c30.017 0 54.343-24.327 54.343-54.335z m539.212 191.517c-21.23-21.222-55.61-21.222-76.858 0-21.222 21.23-21.222 55.626 0 76.848l48.177 48.159c10.598 10.615 24.5 15.932 38.428 15.932 13.902 0 27.796-5.316 38.402-15.932 21.24-21.23 21.24-55.617 0-76.84l-48.15-48.167zM243.93 320.843c10.624 10.624 24.553 15.914 38.454 15.914 13.91 0 27.804-5.29 38.428-15.889 21.222-21.222 21.222-55.626 0.017-76.873l-48.167-48.177c-21.205-21.195-55.618-21.195-76.866-0.043-21.23 21.248-21.23 55.653-0.017 76.874l48.151 48.194z m0.027 383.025l-48.159 48.168c-21.23 21.222-21.23 55.61 0 76.839 10.59 10.615 24.518 15.932 38.437 15.932 13.885 0 27.805-5.316 38.402-15.932l48.176-48.159c21.222-21.222 21.222-55.616 0-76.848-21.222-21.221-55.66-21.221-76.856 0z m498.327-367.111c13.894 0 27.84-5.29 38.437-15.914l48.168-48.194c21.204-21.221 21.204-55.626-0.035-76.874-21.23-21.152-55.625-21.195-76.873 0.043l-48.15 48.177c-21.205 21.248-21.205 55.652 0.017 76.873 10.623 10.599 24.525 15.889 38.436 15.889z" p-id="31787" fill="#2c2c2c"></path></svg>