<?xml version="1.0" standalone="no"?><!DOCTYPE svg PUBLIC "-//W3C//DTD SVG 1.1//EN" "http://www.w3.org/Graphics/SVG/1.1/DTD/svg11.dtd"><svg t="1776500775166" class="icon" viewBox="0 0 1024 1024" version="1.1" xmlns="http://www.w3.org/2000/svg" p-id="9802" xmlns:xlink="http://www.w3.org/1999/xlink" width="200" height="200"><path d="M871.04 520.96H152.96a24.96 24.96 0 1 0 0 49.28h718.08a24.96 24.96 0 1 0 0-49.28zM279.04 416.64V178.56h87.04v-53.76H128v53.76h87.04v238.08h64zM152.96 867.2h526.08a24.96 24.96 0 1 0 0-49.28H152.96a24.96 24.96 0 1 0 0 49.28zM379.52 205.44h57.6v211.2h-57.6zM152.96 718.72h718.08a24.96 24.96 0 1 0 0-49.28H152.96a24.96 24.96 0 1 0 0 49.28zM880 277.76a119.04 119.04 0 0 0-18.56-39.68 94.72 94.72 0 0 0-33.28-28.16 96.64 96.64 0 0 0-46.72-10.24 105.6 105.6 0 0 0-43.52 8.32 98.56 98.56 0 0 0-33.92 23.68 100.48 100.48 0 0 0-22.4 35.2 122.88 122.88 0 0 0-7.68 44.16 124.16 124.16 0 0 0 7.68 44.8 101.12 101.12 0 0 0 21.12 35.2 106.24 106.24 0 0 0 33.92 23.04 124.16 124.16 0 0 0 44.8 7.68 111.36 111.36 0 0 0 64-16.64 97.92 97.92 0 0 0 37.12-53.76H832a37.76 37.76 0 0 1-16 18.56 64 64 0 0 1-67.2-3.84 58.24 58.24 0 0 1-14.08-40.96h151.68a165.76 165.76 0 0 0-6.4-47.36z m-147.84 10.24a37.76 37.76 0 0 1 0-13.44 36.48 36.48 0 0 1 7.68-14.72 39.68 39.68 0 0 1 14.72-12.16 56.32 56.32 0 0 1 23.04-4.48 40.32 40.32 0 0 1 31.36 11.52 69.76 69.76 0 0 1 14.72 33.28zM596.48 124.8h57.6v291.84h-57.6zM482.56 142.08v64H448v38.4h35.2v124.16a56.96 56.96 0 0 0 5.12 25.6 42.24 42.24 0 0 0 14.72 15.36 74.88 74.88 0 0 0 21.12 7.04 166.4 166.4 0 0 0 25.6 0h33.92V371.2L576 372.48h-10.88a28.16 28.16 0 0 1-19.84-5.12 27.52 27.52 0 0 1-5.12-19.2V243.84h42.88v-38.4h-42.88v-64zM379.52 124.8h57.6v48h-57.6z" fill="#5A5A5A" p-id="9803"></path></svg>