<?xml version="1.0" standalone="no"?><!DOCTYPE svg PUBLIC "-//W3C//DTD SVG 1.1//EN" "http://www.w3.org/Graphics/SVG/1.1/DTD/svg11.dtd"><svg t="1776356486859" class="icon" viewBox="0 0 1024 1024" version="1.1" xmlns="http://www.w3.org/2000/svg" p-id="25097" xmlns:xlink="http://www.w3.org/1999/xlink" width="200" height="200"><path d="M733.184 956.3648H317.44a77.7728 77.7728 0 0 1-75.5712-67.8912L173.6192 401.5104a81.0496 81.0496 0 0 1 18.8928-64.5632 75.2128 75.2128 0 0 1 56.6784-26.1632h535.2448a75.264 75.264 0 0 1 55.7568 25.1392 81.0496 81.0496 0 0 1 19.968 62.7712L808.96 885.76a77.4144 77.4144 0 0 1-75.776 70.6048zM249.1904 372.224a13.4656 13.4656 0 0 0-10.24 5.12 19.6608 19.6608 0 0 0-4.4544 15.7184l68.3008 487.0144a16.2304 16.2304 0 0 0 14.6432 14.848h415.744a16.2816 16.2816 0 0 0 14.848-15.6672l51.2-486.9632a19.8144 19.8144 0 0 0-4.6592-15.36 13.6192 13.6192 0 0 0-10.24-4.8128z" fill="#474747" p-id="25098"></path><path d="M521.8304 800.8704a30.72 30.72 0 0 1-30.72-30.72V496.9984a30.72 30.72 0 0 1 61.44 0v273.152a30.72 30.72 0 0 1-30.72 30.72zM406.6816 800.8704a30.72 30.72 0 0 1-30.72-28.928l-15.872-273.2032a30.72 30.72 0 1 1 61.44-3.5328l15.872 273.152a30.72 30.72 0 0 1-28.8768 32.4608zM638.9248 800.8704h-1.8432a30.72 30.72 0 0 1-28.8768-32.4608l15.9232-273.152a30.72 30.72 0 1 1 61.44 3.5328l-15.9232 273.2032a30.72 30.72 0 0 1-30.72 28.8768z" fill="#336BFF" p-id="25099"></path><path d="M866.9184 144.5376a30.72 30.72 0 0 0-35.1744-25.6l-195.5328 31.0784a135.3216 135.3216 0 0 0-260.2496 41.3696l-193.9456 30.72a30.72 30.72 0 0 0 4.8128 61.0816 31.5392 31.5392 0 0 0 4.864-0.3584l423.424-67.328a25.6 25.6 0 0 0 3.8912-0.3584 32.9216 32.9216 0 0 0 3.8912-0.8704l218.4704-34.7136a30.72 30.72 0 0 0 25.5488-35.0208z m-415.6416 13.056a73.728 73.728 0 0 1 121.1392 2.6624l-132.5568 21.0432a73.5232 73.5232 0 0 1 11.4176-23.7056z" fill="#474747" p-id="25100"></path></svg>