<?xml version="1.0" standalone="no"?><!DOCTYPE svg PUBLIC "-//W3C//DTD SVG 1.1//EN" "http://www.w3.org/Graphics/SVG/1.1/DTD/svg11.dtd"><svg t="1776344845738" class="icon" viewBox="0 0 1024 1024" version="1.1" xmlns="http://www.w3.org/2000/svg" p-id="8766" xmlns:xlink="http://www.w3.org/1999/xlink" width="200" height="200"><path d="M692.9 963.8H105.5c-25.3 0-45.9-20.7-45.9-45.9V112.4c0-25.3 20.7-45.9 45.9-45.9h587.4c25.3 0 45.9 20.7 45.9 45.9V918c0 25.2-20.6 45.8-45.9 45.8z" fill="#1BD198" p-id="8767"></path><path d="M606.3 84.6c49 0 96.7 5.6 142.2 16-1.1-24.2-21.3-43.6-45.8-43.6H115.3C90 57 69.4 77.7 69.4 102.9v300.4C163.6 215.1 368.6 84.6 606.3 84.6z" fill="#82F4CE" p-id="8768"></path><path d="M751.2 289.6c-55.9 319.7-292 526-602.4 566.2-22.6 2.9-54.3 4.9-76.5 2.5v83.1c0 25.3 20.7 45.9 45.9 45.9h587.4c25.3 0 45.9-20.7 45.9-45.9V250.6l-0.3 39z" fill="#0DB779" p-id="8769"></path><path d="M942.9 410.8L731.3 622.4c-4.7 4.7-12.3 4.7-17 0l-44-44c-4.7-4.7-4.7-12.3 0-17L882 349.9c4.7-4.7 12.3-4.7 17 0l44 44c4.6 4.6 4.6 12.3-0.1 16.9z" fill="#0DB779" p-id="8770"></path><path d="M533.3 805.5l-51.3 3.4 3.4-51.3 393.8-393.8 47.9 48-393.8 393.7z m176.2 72.1c0 30.4-24.6 55-55 55H144c-30.4 0-55-24.7-55-55V143.8c0-30.4 24.6-55 55-55h510.4c30.4 0 55 24.7 55 55v284.4L412.9 724.7l-9.1 138.8c-0.3 6.1 1.9 12.1 6 16.5 4.2 4.5 10 7 16.1 7.1h1.4l138.8-9.1 143.3-143.3v142.9z m200.3-588.5c-8.3-8.4-19.5-13.1-31.3-13.2-10.5 0-20.8 3.8-28.5 11.6l-66.1 66.1V143.8c-0.1-71.5-58-129.4-129.5-129.5H144c-71.5 0.1-129.4 58-129.5 129.5v733.8C14.6 949 72.5 1007 144 1007h510.4c71.5-0.1 129.4-58 129.5-129.5V664.3h-4.1l223.5-223.5c16.1-16.1 15.4-42.9-1.5-59.8l-92-91.9z m-709.1-1.8h397.1c13.3 0 25.6-7.1 32.2-18.6 6.6-11.5 6.6-25.7 0-37.2-6.7-11.5-18.9-18.6-32.2-18.6H200.7c-13.3 0-25.6 7.1-32.2 18.6a37.42 37.42 0 0 0 0 37.2c6.6 11.5 18.9 18.6 32.2 18.6m0 173.7h248.2c13.3 0 25.6-7.1 32.2-18.6 6.6-11.5 6.6-25.7 0-37.2-6.6-11.5-18.9-18.6-32.2-18.6H200.7c-13.3 0-25.6 7.1-32.2 18.6a37.42 37.42 0 0 0 0 37.2c6.6 11.5 18.9 18.6 32.2 18.6m148.9 99.3H200.7c-13.3 0-25.6 7.1-32.2 18.6a37.42 37.42 0 0 0 0 37.2c6.7 11.5 18.9 18.6 32.2 18.6h148.9c13.3 0 25.6-7.1 32.2-18.6 6.6-11.5 6.6-25.7 0-37.2-6.6-11.5-18.9-18.6-32.2-18.6" fill="#3A3644" p-id="8771"></path></svg>