<?xml version="1.0" standalone="no"?><!DOCTYPE svg PUBLIC "-//W3C//DTD SVG 1.1//EN" "http://www.w3.org/Graphics/SVG/1.1/DTD/svg11.dtd"><svg t="1776583559611" class="icon" viewBox="0 0 1024 1024" version="1.1" xmlns="http://www.w3.org/2000/svg" p-id="26680" xmlns:xlink="http://www.w3.org/1999/xlink" width="200" height="200"><path d="M916.48 419.84h-299.52c-4.096 0-7.68 3.584-7.68 7.68V537.6c0 4.096 3.584 7.68 7.68 7.68h47.104c4.096 0 7.68-3.584 7.68-7.68V482.816h58.88v314.88H686.08c-4.096 0-7.68 3.584-7.68 7.68v47.104c0 4.096 3.584 7.68 7.68 7.68h161.28c4.096 0 7.68-3.584 7.68-7.68v-47.104c0-4.096-3.584-7.68-7.68-7.68h-45.056V482.816h58.88v55.296c0 4.096 3.584 7.68 7.68 7.68h47.104c4.096 0 7.68-3.584 7.68-7.68V428.032c0.512-4.608-3.072-8.192-7.168-8.192z" p-id="26681"></path><path d="M656.384 302.08V175.616c0-4.096-3.584-7.68-7.68-7.68H112.64c-4.096 0-7.68 3.584-7.68 7.68V302.08c0 4.096 3.584 7.68 7.68 7.68h55.296c4.096 0 7.68-3.584 7.68-7.68V239.104h165.376v551.424H250.88c-4.096 0-7.68 3.584-7.68 7.68v55.296c0 4.096 3.584 7.68 7.68 7.68h260.096c4.096 0 7.68-3.584 7.68-7.68v-55.296c0-4.096-3.584-7.68-7.68-7.68H419.84V239.104h165.376V302.08c0 4.096 3.584 7.68 7.68 7.68h55.296c4.608 0 8.192-3.584 8.192-7.68z" p-id="26682"></path></svg>