<?xml version="1.0" standalone="no"?><!DOCTYPE svg PUBLIC "-//W3C//DTD SVG 1.1//EN" "http://www.w3.org/Graphics/SVG/1.1/DTD/svg11.dtd"><svg t="1775553237050" class="icon" viewBox="0 0 1024 1024" version="1.1" xmlns="http://www.w3.org/2000/svg" p-id="36531" xmlns:xlink="http://www.w3.org/1999/xlink" width="200" height="200"><path d="M810.666667 298.666667v86.656a170.666667 170.666667 0 0 1-14.506667 339.882666A256.128 256.128 0 0 1 554.666667 896H384a256 256 0 0 1-256-256V298.666667h682.666667z m-64 64h-554.666667V640a192 192 0 0 0 182.954667 191.786667L384 832h170.666667a192 192 0 0 0 191.786666-182.954667L746.666667 640V362.666667z m64 87.466666V640c0 6.485333-0.256 12.928-0.725334 19.328A106.666667 106.666667 0 0 0 810.666667 450.133333zM288 217.813333v-85.333333h64v85.333333h-64z m298.666667 0v-85.333333h64v85.333333h-64z m-149.333334 0v-128h64v128h-64z" fill="#000000" p-id="36532"></path></svg>