<?xml version="1.0" standalone="no"?><!DOCTYPE svg PUBLIC "-//W3C//DTD SVG 1.1//EN" "http://www.w3.org/Graphics/SVG/1.1/DTD/svg11.dtd"><svg t="1775552021801" class="icon" viewBox="0 0 1024 1024" version="1.1" xmlns="http://www.w3.org/2000/svg" p-id="8520" xmlns:xlink="http://www.w3.org/1999/xlink" width="200" height="200"><path d="M70.821161 743.258839l30.984258 53.677419c26.359742 45.617548 81.391484 60.382968 127.009033 34.023226l56.386064-32.536774-31.01729-53.67742-56.353032 32.536775c-16.08671 9.315097-33.032258 4.756645-42.347355-11.330065l-30.984258-53.677419c-9.282065-16.119742-4.756645-33.032258 11.363096-42.347355l56.353033-32.536774-30.984258-53.67742-56.386065 32.536774c-42.941935 24.774194-58.797419 84.067097-34.023226 127.009033zM747.883355 248.600774l30.984258 53.67742 56.353032-32.569807c16.119742-9.282065 33.032258-4.756645 42.347355 11.363097l30.984258 53.677419c9.282065 16.08671 4.756645 33.032258-11.330064 42.347355l-56.386065 32.536774 30.984258 53.67742 56.386065-32.536775c45.617548-26.359742 60.349935-81.391484 34.023225-127.009032l-30.984258-53.677419c-26.359742-45.650581-81.391484-60.382968-127.009032-34.023226l-53.677419 30.984258c-1.552516-2.708645-4.228129-1.156129-2.675613 1.552516zM544.305548 26.161548l-61.109677-0.495483c-49.977806 0.198194-93.250065 43.074065-93.018839 93.05187l-0.495484 61.109678s1.552516 2.675613-1.123096 4.228129l61.109677 0.495484 1.123097-4.228129-0.924903-38.812903-0.099097-24.972388c0.29729-18.068645 14.864516-30.059355 31.380645-32.437677l61.109677 0.495484c18.068645 0.330323 30.059355 14.864516 32.437678 31.380645l-0.495484 61.109677-1.156129 4.22813 61.109677 0.495483 1.156129-4.228129 0.495484-61.109677C635.540645 66.493935 594.250323 25.930323 544.305548 26.161548z m97.114839 831.421936l-61.109677-0.495484-1.156129 4.228129-1.123097 4.228129 0.627613 56.881548c1.255226 20.77729-13.312 32.734968-31.380645 32.437678l-61.109678-0.495484c-18.068645-0.330323-30.059355-14.864516-32.437677-31.380645l-2.180129-59.557161-0.42942-6.936775-61.109677-0.495484-1.156129 4.22813-0.495484 61.109677c7.564387 56.485161 48.887742 97.048774 98.832516 96.850581l61.109678 0.495483c50.010839-0.231226 93.250065-43.107097 93.018838-93.051871l0.495484-61.109677c-1.552516-2.708645 1.156129-4.261161-0.396387-6.936774zM101.640258 238.790194l-30.125419 53.181935c-25.170581 43.140129-13.411097 100.748387 34.023226 127.075097l53.181935 30.125419 4.228129 1.156129 30.125419-53.181935-4.228129-1.156129-33.164387-20.215742-21.570064-12.585291c-15.822452-8.786581-19.75329-27.978323-10.96671-43.767742l30.125419-53.181935c8.786581-15.822452 27.978323-19.75329 43.767742-10.96671l53.181936 30.12542 4.228129 1.123096 30.158451-53.181935s-1.552516-2.642581-4.261161-1.123097l-53.181935-30.125419c-44.263226-20.942452-100.352-6.474323-125.522581 36.665806z m768.066065 351.000774l-30.12542 53.181935 4.228129 1.123097 4.228129 1.123097 48.953807 29.002322c15.789419 8.786581 19.720258 27.978323 10.966709 43.767742l-30.125419 53.181936c-8.786581 15.822452-27.978323 19.75329-43.800774 10.966709l-50.47329-31.677935-5.780646-3.831742-30.158451 53.181936s1.552516 2.708645 4.261161 1.156129l53.181936 30.125419c43.140129 25.170581 100.748387 13.378065 127.075096-34.023226l30.12542-53.181935c25.170581-43.140129 13.378065-100.748387-34.023226-127.075097l-53.181936-30.12542c-1.123097 4.228129-5.351226 3.105032-5.351225 3.105033z" fill="#2c2c2c" p-id="8521"></path><path d="M203.47871 409.005419l-54.70142-32.834064c-33.428645 90.871742-35.674839 192.379871 0.495484 286.026322l53.67742-31.01729c-28.011355-73.298581-22.957419-151.353806 0.561548-222.174968z m249.723871-212.166193l-1.057033-63.785291c-45.35329 8.258065-90.244129 23.452903-133.186064 48.227097-42.941935 24.807226-75.875097 54.56929-105.703226 89.682581l54.734452 32.801032a301.78271 301.78271 0 0 1 81.953032-68.773161 319.223742 319.223742 0 0 1 103.225806-38.152258z m122.219354 0.990968c73.100387 15.06271 140.552258 51.299097 192.710194 110.658064l53.677419-31.01729a389.285161 389.285161 0 0 0-245.892129-140.750452l-0.495484 61.109678z m252.597678 437.512258l54.734452 32.801032c33.395613-90.83871 35.674839-192.346839-0.528517-285.99329l-53.677419 30.984258c28.011355 73.331613 22.990452 151.353806-0.528516 222.208z m-370.886194 274.960516l-1.057032-63.818323c-73.100387-15.06271-140.552258-51.266065-192.710193-110.625032l-53.67742 30.984258c64.578065 80.829935 153.6 129.651613 247.411613 143.459097z m121.195355-62.827355l1.057032 63.818322c45.320258-8.258065 90.211097-23.452903 133.153033-48.260129 40.299355-23.25471 75.875097-54.536258 105.703226-89.649548l-54.734452-32.834064a301.78271 301.78271 0 0 1-81.92 68.806193 319.223742 319.223742 0 0 1-103.258839 38.119226z m26.095484-444.482065a24.113548 24.113548 0 0 0 7.002839 24.576c39.770839 37.854968 51.530323 95.463226 27.21858 152.476904-22.098581 48.557419-73.100387 77.956129-127.27329 77.064258-87.667613-3.072-144.185806-88.526452-121.063226-166.284387 12.453161-46.575484 49.218065-82.118194 92.985807-93.051871a24.113548 24.113548 0 0 0 18.365935-17.771355l1.123097-4.228129c4.558452-16.945548-13.212903-35.344516-32.404645-31.380645-75.280516 18.398968-135.333161 81.688774-139.957678 166.680774a181.875613 181.875613 0 0 0 103.820388 179.827613c108.643097 51.794581 232.910452-5.648516 263.564387-119.973162 18.167742-67.716129-2.543484-134.507355-49.614452-178.902709-11.99071-14.534194-36.56671-7.531355-43.800774 10.966709z" fill="#2c2c2c" p-id="8522"></path></svg>