<?xml version="1.0" standalone="no"?><!DOCTYPE svg PUBLIC "-//W3C//DTD SVG 1.1//EN" "http://www.w3.org/Graphics/SVG/1.1/DTD/svg11.dtd"><svg t="1776086766455" class="icon" viewBox="0 0 1024 1024" version="1.1" xmlns="http://www.w3.org/2000/svg" p-id="18433" xmlns:xlink="http://www.w3.org/1999/xlink" width="200" height="200"><path d="M557.994667 127.274667A228.778667 228.778667 0 0 0 428.117333 85.333333a227.584 227.584 0 0 0-203.605333 129.792 183.68 183.68 0 0 0-38.997333-4.053333A187.392 187.392 0 0 0 0 398.464c0 26.197333 5.461333 52.138667 16 76.117333a292.992 292.992 0 0 1 225.408-105.429333h9.856a342.4 342.4 0 0 1 389.589333-133.376 228.821333 228.821333 0 0 0-82.858666-108.501333z m257.664 416c-14.848-147.029333-129.28-261.333333-268.330667-261.333334A260.650667 260.650667 0 0 0 345.173333 380.544c32.938667 10.752 63.573333 27.52 90.453334 49.408a35.072 35.072 0 0 1 5.461333 48.554667 34.090667 34.090667 0 0 1-47.36 5.632 210.901333 210.901333 0 0 0-87.210667-42.581334l-6.997333-1.536-2.944-0.554666 2.261333 0.384-6.656-1.194667 4.394667 0.810667-6.954667-1.152-7.125333-0.853334h-21.973333c-121.173333 0-219.434667 104.576-219.434667 233.386667 0 128.768 98.304 233.216 219.434667 233.216h582.101333a181.418667 181.418667 0 1 0-26.922667-360.832z" fill="#000000" p-id="18434"></path></svg>