<?xml version="1.0" standalone="no"?><!DOCTYPE svg PUBLIC "-//W3C//DTD SVG 1.1//EN" "http://www.w3.org/Graphics/SVG/1.1/DTD/svg11.dtd"><svg t="1776086961118" class="icon" viewBox="0 0 1024 1024" version="1.1" xmlns="http://www.w3.org/2000/svg" p-id="28047" xmlns:xlink="http://www.w3.org/1999/xlink" width="200" height="200"><path d="M825.912889 684.361956H213.447111C109.2608 669.639111 34.133333 578.468978 34.133333 470.880711c0-100.807111 70.018844-185.173333 164.499911-207.815111C229.376 152.632889 334.119822 68.266667 454.792533 68.266667c145.7152 0 261.0176 121.173333 261.0176 264.442311 0 3.401956-1.456356 6.235022-1.456355 10.194489 27.318044-15.860622 59.198578-28.319289 93.354666-28.319289 102.456889 0 185.799111 84.946489 185.799112 186.299733 0 95.140978-74.24 174.421333-167.594667 183.478045zM194.673778 904.214756l59.414755-115.985067c8.544711-19.080533 31.891911-26.817422 51.0976-17.294222a39.298844 39.298844 0 0 1 17.976889 51.859911l-58.936889 115.985066a39.003022 39.003022 0 0 1-51.632355 18.887112 38.695822 38.695822 0 0 1-17.92-53.4528z m178.824533 0l58.345245-115.985067a39.003022 39.003022 0 0 1 52.155733-17.294222 38.559289 38.559289 0 0 1 17.396622 51.859911L443.050667 938.780444a39.003022 39.003022 0 0 1-51.632356 18.887112c-19.114667-8.954311-28.012089-31.926044-19.000889-51.313778a35.84 35.84 0 0 1 1.080889-2.139022z m156.455822 0l58.709334-115.985067c9.261511-19.080533 33.439289-26.817422 51.8144-17.294222a38.547911 38.547911 0 0 1 17.385244 51.859911L599.506489 938.780444c-8.999822 19.387733-32.119467 27.8528-50.642489 18.887112-20.48-8.954311-28.990578-31.926044-19.171556-51.313778-0.466489-0.7168-0.113778-1.4336 0.261689-2.139022z m178.824534 0l58.345244-115.985067a39.0144 39.0144 0 0 1 52.167111-17.294222 38.547911 38.547911 0 0 1 17.385245 51.859911L778.331022 938.780444c-8.2944 19.387733-32.119467 27.8528-51.632355 18.887112a38.570667 38.570667 0 0 1-17.92-53.4528z" p-id="28048" fill="#2c2c2c"></path></svg>