<?xml version="1.0" standalone="no"?><!DOCTYPE svg PUBLIC "-//W3C//DTD SVG 1.1//EN" "http://www.w3.org/Graphics/SVG/1.1/DTD/svg11.dtd"><svg t="1776086851320" class="icon" viewBox="0 0 1024 1024" version="1.1" xmlns="http://www.w3.org/2000/svg" p-id="24490" xmlns:xlink="http://www.w3.org/1999/xlink" width="200" height="200"><path d="M819.325156 667.8528H211.945244C108.088889 653.255111 34.133333 562.835911 34.133333 456.135111c0-99.953778 69.438578-183.625956 163.134578-206.085689C227.760356 140.561067 331.616711 56.888889 451.288178 56.888889c144.497778 0 257.968356 120.172089 257.968355 262.2464 0 4.494222-0.568889 6.178133-0.568889 10.103467 27.101867-15.724089 58.709333-27.795911 92.580978-27.795912 101.603556 0 184.7296 83.945244 184.7296 184.467912 0 94.333156-73.386667 172.9536-166.673066 181.930666zM237.681778 885.873778l57.867378-115.029334a38.684444 38.684444 0 0 1 51.723377-17.146311 38.229333 38.229333 0 0 1 17.248711 51.427556l-57.867377 115.029333a38.684444 38.684444 0 0 1-51.2 18.716445c-17.703822-8.874667-27.761778-31.652978-18.8416-50.881423 0.341333-0.7168 0.682667-1.422222 1.069511-2.116266zM517.347556 709.859556c5.233778-6.826667 16.201956-1.536 13.9264 6.724266l-24.484978 88.928711a7.771022 7.771022 0 0 0 7.623111 9.819023h62.236444c4.357689 0 7.8848 4.755911 7.8848 7.7824 0 1.695289-0.568889 3.845689-1.592889 4.699022L478.196622 964.608c-5.233778 6.826667-14.973156 1.536-13.915022-5.290667l24.462222-89.793422c1.149156-4.721778-1.3312-8.988444-4.744533-8.590222-1.467733-1.706667-2.161778-1.809067-2.8672-1.809067h-62.236445a7.850667 7.850667 0 0 1-7.8848-7.771022c0-0.967111 0.568889-3.345067 1.592889-4.699022L517.347556 709.859556z m119.318755 176.014222l57.867378-115.029334a38.684444 38.684444 0 0 1 51.723378-17.134933 38.229333 38.229333 0 0 1 17.248711 51.427556l-57.867378 115.029333a38.684444 38.684444 0 0 1-51.2 18.716444 38.240711 38.240711 0 0 1-17.772089-52.997688z" p-id="24491"></path></svg>